<svg width="27" height="30" viewBox="0 0 27 30" fill="none" xmlns="http://www.w3.org/2000/svg">
<path d="M8.258 25.865C8.27245 26.4021 8.1797 26.9367 7.98516 27.4376C7.79063 27.9384 7.49821 28.3955 7.125 28.782C6.75208 29.1668 6.30575 29.4728 5.81243 29.682C5.31912 29.8913 4.78885 29.9994 4.253 30C3.71704 30.0002 3.18652 29.8924 2.6931 29.6832C2.19967 29.4739 1.75344 29.1674 1.381 28.782C1.0071 28.396 0.714234 27.939 0.519651 27.438C0.325069 26.9371 0.232705 26.4022 0.248001 25.865C0.257001 25.167 0.448001 24.483 0.805001 23.884C1.161 23.284 1.668 22.79 2.275 22.451C2.365 22.396 2.251 22.56 2.275 22.451L4.135 20.799C5.60942 19.2298 6.43293 17.1592 6.439 15.006C6.439 12.08 4.728 9.105 2.269 7.549C2.233 7.455 2.363 7.604 2.269 7.549C1.66169 7.20902 1.15494 6.71469 0.800001 6.116C0.443835 5.5163 0.251737 4.83344 0.243001 4.136C0.228358 3.59872 0.32102 3.06391 0.515563 2.56287C0.710107 2.06183 1.00262 1.60462 1.376 1.218C1.74881 0.833339 2.19498 0.527354 2.68811 0.318146C3.18124 0.108938 3.71133 0.000756058 4.247 5.71818e-07C4.78298 -0.000286365 5.31353 0.107418 5.80697 0.316684C6.30041 0.52595 6.74663 0.832488 7.119 1.218C7.49304 1.60395 7.786 2.06089 7.98059 2.56188C8.17518 3.06288 8.26747 3.59777 8.252 4.135C8.26241 6.30708 9.10194 8.3932 10.599 9.967L11.416 10.767C11.742 11.052 12.084 11.318 12.44 11.565C13.061 11.895 13.582 12.391 13.944 12.996C14.215 13.4489 14.3913 13.9521 14.4622 14.4751C14.5331 14.9982 14.4972 15.5301 14.3566 16.0389C14.216 16.5476 13.9737 17.0225 13.6442 17.4349C13.3148 17.8473 12.9051 18.1885 12.44 18.438C12.377 18.474 12.473 18.371 12.44 18.438C11.1838 19.2321 10.1447 20.3258 9.416 21.621C8.6855 22.9184 8.28766 24.3764 8.258 25.865ZM12.741 4.123C12.741 4.919 12.976 5.698 13.417 6.36C13.8564 7.02107 14.4822 7.53685 15.215 7.842C15.9471 8.14685 16.7535 8.22661 17.5311 8.07112C18.3087 7.91563 19.0224 7.53193 19.581 6.969C20.1413 6.40452 20.5226 5.68728 20.6772 4.9071C20.8318 4.12692 20.7527 3.31848 20.45 2.583C20.1473 1.84836 19.6337 1.2199 18.974 0.777001C18.2039 0.260281 17.2779 0.0276751 16.355 0.119089C15.4321 0.210504 14.5698 0.62024 13.916 1.278C13.1641 2.034 12.7417 3.05673 12.741 4.123ZM16.748 21.84C15.956 21.84 15.181 22.076 14.522 22.518C13.8624 22.9609 13.3488 23.5894 13.046 24.324C12.743 25.0596 12.6639 25.8683 12.8185 26.6486C12.9731 27.429 13.3545 28.1464 13.915 28.711C14.4736 29.2739 15.1873 29.6576 15.9649 29.8131C16.7426 29.9686 17.5489 29.8888 18.281 29.584C19.0144 29.2785 19.6406 28.762 20.08 28.1C20.5948 27.3249 20.8261 26.3959 20.735 25.47C20.6439 24.544 20.2359 23.6779 19.58 23.018C19.2088 22.6446 18.7676 22.3482 18.2816 22.1457C17.7957 21.9432 17.2745 21.8386 16.748 21.838V21.84ZM27 14.994C27 14.198 26.765 13.42 26.325 12.758C25.8857 12.0966 25.2599 11.5804 24.527 11.275C23.7948 10.9699 22.9882 10.8901 22.2104 11.0456C21.4325 11.2011 20.7187 11.5849 20.16 12.148C19.5995 12.7126 19.2181 13.43 19.0635 14.2104C18.9089 14.9907 18.9881 15.7994 19.291 16.535C19.5937 17.2696 20.1073 17.8981 20.767 18.341C21.4252 18.783 22.2001 19.019 22.993 19.019C23.5195 19.0182 24.0406 18.9136 24.5265 18.7111C25.0125 18.5086 25.4537 18.2123 25.825 17.839C26.577 17.0826 26.9994 16.0596 27 14.993V14.994Z" fill="#63F19C"/>
</svg>
